<svg width="90" height="90" viewBox="0 0 90 90" fill="none" xmlns="http://www.w3.org/2000/svg">
<path d="M47.3009 48.6114C47.2999 48.478 47.2772 48.3385 47.2762 48.231C47.2762 46.1577 47.2565 44.0855 47.2689 42.0122C47.27 41.7765 47.271 41.5409 47.272 41.3052C47.272 41.1109 47.272 40.9177 47.272 40.6841C45.8908 40.7926 44.4982 40.8774 43.1212 41.0004C42.8548 41.0241 42.571 41.1058 42.4626 41.2742C42.3624 41.4293 42.4161 41.6277 42.4171 41.7931C42.4171 42.0008 42.4182 42.2096 42.4182 42.4173C42.4182 44.4834 42.4254 46.5495 42.4244 48.6145C42.4244 48.909 42.4233 49.2026 42.4233 49.4971C43.8045 49.3886 45.1971 49.3039 46.5742 49.1809C46.8137 49.1592 47.1151 49.0858 47.2287 48.9235C47.2865 48.8388 47.3009 48.7271 47.3009 48.6114Z" fill="black"/>
<path d="M55.0704 19.544C60.0326 20.9568 65.3871 19.699 70.4536 20.6612C71.6005 20.8793 72.9601 21.4901 73.0003 22.6684C73.0179 23.1934 72.7453 23.6874 72.4006 24.0812C71.585 25.0125 70.3907 25.4961 69.2231 25.8889C58.5627 29.4805 46.8059 28.0407 35.975 31.0649C31.2203 32.392 26.2993 34.9934 24.5259 39.6443C23.5307 42.253 23.7021 45.2916 24.9842 47.769C26.2663 50.2475 28.6375 52.1234 31.3256 52.7879C31.7519 52.8934 32.1865 52.9657 32.6252 53.0122C35.4248 53.3068 37.4316 53.1145 40.1981 52.8468C41.0054 52.7693 43.1732 52.4024 43.7503 51.681C43.9918 51.3761 43.3539 51.2221 43.1835 51.1601C42.8264 51.0288 42.4713 50.8934 42.1192 50.7488C41.44 50.4707 40.7731 50.1617 40.13 49.8082C38.5547 48.9421 37.0817 47.8858 35.7572 46.6632C35.1224 46.0771 34.502 45.4239 34.2325 44.5992C33.7938 43.2597 34.4101 41.7445 35.4259 40.7761C36.4416 39.8076 37.7898 39.2867 39.1235 38.8651C45.5289 36.8424 52.3307 36.6264 59.0076 35.9412C65.6845 35.2559 72.5378 34.0012 78.1184 30.235C80.8189 28.4118 83.3222 25.6181 83.1849 22.3397C83.0321 18.7213 79.7959 16.0816 76.6763 14.2936C72.9704 12.1696 68.8897 10.4849 64.6305 10.3868C60.3702 10.2875 55.9024 12.0001 53.4672 15.5317C53.0007 16.2087 52.6001 17.0397 52.8231 17.8334C53.0915 18.7895 54.1259 19.2752 55.0704 19.544ZM57.2114 14.06C57.8844 13.9235 58.4925 14.1251 58.5688 14.5106C58.6452 14.8961 58.1621 15.3188 57.4891 15.4553C56.816 15.5917 56.208 15.3901 56.1316 15.0046C56.0542 14.6181 56.5383 14.1954 57.2114 14.06Z" fill="black"/>
<path d="M11.5349 30.5926C15.4866 33.0679 20.2558 34.3309 25.2417 35.2414C25.5163 35.2921 26.016 35.1226 26.2028 34.9438C29.4979 31.7863 33.9347 29.9383 39.1849 28.9182C37.9028 28.7859 36.6228 28.6423 35.3386 28.5224C31.3003 28.1462 27.264 27.7596 23.397 26.7891C21.2385 26.2475 18.4606 25.6522 16.9349 23.8569C16.6324 23.5014 16.427 23.0342 16.4838 22.5681C16.5374 22.1258 16.8224 21.7371 17.1785 21.4736C17.5346 21.21 17.9579 21.0571 18.3811 20.931C22.1056 19.823 26.1233 20.4328 29.9449 20.2633C32.1468 20.1662 34.3104 19.8179 36.1324 18.805C37.2587 18.1787 37.0811 16.2976 36.309 15.446C35.0351 14.0424 33.3194 12.2058 31.164 11.5681C25.0002 9.74286 19.3566 11.9939 13.4973 14.2222C11.1499 15.1152 9.09564 16.2976 7.92398 18.0443C5.09034 22.2705 6.62845 27.5198 11.5349 30.5926ZM30.5983 14.1613C30.6747 13.7758 31.2827 13.5742 31.9558 13.7106C32.6288 13.8471 33.1119 14.2698 33.0356 14.6553C32.9592 15.0408 32.3511 15.2424 31.6781 15.1059C31.005 14.9695 30.5219 14.5468 30.5983 14.1613Z" fill="black"/>
<path d="M34.6307 70.8388C29.6685 69.4259 24.314 70.6838 19.2464 69.7215C18.0996 69.5035 16.74 68.8926 16.6998 67.7144C16.6822 67.1894 16.9547 66.6953 17.2995 66.3015C18.115 65.3703 19.3094 64.8866 20.4769 64.4939C31.1374 60.9023 42.8932 62.342 53.725 59.3179C58.4798 57.9908 63.4007 55.3894 65.1742 50.7384C66.1694 48.1298 65.998 45.0911 64.7159 42.6137C63.4338 40.1353 61.0626 38.2594 58.3745 37.5948C57.9482 37.4894 57.5146 37.4171 57.0748 37.3705C54.2753 37.076 52.2685 37.2682 49.5019 37.5359C48.6947 37.6134 46.5269 37.9803 45.9498 38.7018C45.7083 39.0067 46.3462 39.1606 46.5165 39.2227C46.8737 39.3539 47.2288 39.4893 47.5808 39.634C48.2601 39.912 48.9269 40.2211 49.5701 40.5745C51.1453 41.4406 52.6184 42.4969 53.9429 43.7196C54.5777 44.3056 55.1981 44.9588 55.4676 45.7836C55.9063 47.1231 55.29 48.6383 54.2742 49.6067C53.2585 50.5751 51.9103 51.096 50.5766 51.5177C44.1712 53.5404 37.3694 53.7564 30.6925 54.4416C24.0156 55.1268 17.1622 56.3816 11.5817 60.1478C8.88118 61.971 6.37787 64.7647 6.51516 68.0431C6.66794 71.6615 9.90418 74.3012 13.0238 76.0892C16.7297 78.2131 20.8104 79.8978 25.0696 79.996C29.3289 80.0942 33.7977 78.3826 36.2328 74.851C36.6994 74.174 37.1 73.3431 36.877 72.5493C36.6096 71.5933 35.5753 71.1075 34.6307 70.8388ZM32.4897 76.3238C31.8167 76.4602 31.2087 76.2587 31.1323 75.8732C31.0559 75.4877 31.539 75.065 32.2121 74.9285C32.8851 74.7921 33.4931 74.9936 33.5695 75.3792C33.6469 75.7647 33.1628 76.1874 32.4897 76.3238Z" fill="black"/>
<path d="M78.1656 59.7902C74.214 57.3149 69.4448 56.0519 64.4588 55.1413C64.1842 55.0907 63.6846 55.2602 63.4978 55.439C60.2027 58.5965 55.7659 60.4444 50.5156 61.4645C51.7977 61.5968 53.0778 61.7405 54.362 61.8604C58.4003 62.2366 62.4366 62.6231 66.3035 63.5936C68.4621 64.1352 71.24 64.7305 72.7657 66.5258C73.0681 66.8814 73.2736 67.3485 73.2168 67.8146C73.1631 68.257 72.8782 68.6456 72.5221 68.9092C72.1659 69.1727 71.7427 69.3257 71.3194 69.4518C67.5949 70.5597 63.5772 69.9499 59.7557 70.1194C57.5538 70.2166 55.3901 70.5649 53.5681 71.5778C52.4419 72.2041 52.6194 74.0852 53.3916 74.9368C54.6654 76.3404 56.3811 78.177 58.5365 78.8147C64.7004 80.6399 70.3439 78.3888 76.2032 76.1605C78.5507 75.2675 80.6049 74.0852 81.7766 72.3385C84.6102 68.1123 83.0721 62.8629 78.1656 59.7902ZM59.1022 76.2215C59.0259 76.607 58.4178 76.8085 57.7448 76.6721C57.0717 76.5357 56.5886 76.113 56.665 75.7275C56.7414 75.3419 57.3494 75.1404 58.0225 75.2768C58.6955 75.4133 59.1786 75.836 59.1022 76.2215Z" fill="black"/>
</svg>
