<svg width="53" height="64" viewBox="0 0 53 64" fill="none" xmlns="http://www.w3.org/2000/svg">
<path fill-rule="evenodd" clip-rule="evenodd" d="M31.9302 22.5335C33.8602 21.5686 36.3161 20.1483 38.7749 18.2023C39.2934 19.2817 39.3502 20.2236 39.0831 20.9841C38.8938 21.5201 38.5371 21.9864 38.0681 22.3573C37.5601 22.7581 36.9258 23.0499 36.2246 23.2077C34.8942 23.5081 33.3407 23.3327 31.9302 22.5335ZM32.2648 32.4199L34.8197 33.8995C29.603 36.8309 28.1848 42.2741 26.5002 47.5757C24.8157 42.2741 23.3974 36.8309 18.1809 33.8995L20.7358 32.4199C20.983 32.3263 21.1942 32.1566 21.3393 31.9352C21.4844 31.7138 21.5558 31.4521 21.5434 31.1875C21.3093 26.2223 22.6465 24.0266 24.4502 22.648C25.0971 22.1542 25.8034 21.9062 26.5002 21.9062C27.197 21.9062 27.9032 22.1542 28.5504 22.648C30.354 24.0266 31.6912 26.2223 31.4571 31.1875C31.4447 31.4521 31.5162 31.7138 31.6613 31.9352C31.8064 32.1566 32.0176 32.3263 32.2648 32.4199ZM26.5002 -0.000244141C29.4535 0.0792502 32.4141 0.654055 34.9835 1.77225C36.7628 2.54758 38.4231 3.57173 39.9264 4.7964C40.6053 5.34928 41.1644 5.88339 41.7802 6.49826C43.441 6.55582 45.8683 4.70594 46.9952 2.97499C45.0559 9.3493 36.2061 16.8768 30.0794 19.7571C30.0768 19.7561 30.0752 19.7546 30.0733 19.7534C28.9737 18.9116 27.7371 18.4907 26.5002 18.4907C25.2633 18.4907 24.0268 18.9116 22.9273 19.7534C22.9254 19.7544 22.9237 19.7563 22.9212 19.7571C16.7942 16.8768 7.94471 9.3493 6.00537 2.97499C7.13204 4.70594 9.55932 6.55582 11.2202 6.49826C11.8362 5.8836 12.3952 5.34928 13.0739 4.7964C14.5773 3.57173 16.2375 2.54758 18.0168 1.77225C20.5865 0.654055 23.5471 0.0792502 26.5002 -0.000244141ZM21.0702 22.5335C19.1403 21.5686 16.6842 20.1483 14.2256 18.2023C13.7072 19.2817 13.6504 20.2236 13.9173 20.9841C14.1068 21.5201 14.4635 21.9864 14.9323 22.3573C15.4404 22.7581 16.0747 23.0499 16.7759 23.2077C18.1064 23.5081 19.6596 23.3327 21.0702 22.5335Z" fill="white"/>
<path fill-rule="evenodd" clip-rule="evenodd" d="M41.4677 15.8178C42.8213 14.4483 44.014 12.9324 44.973 11.5797L45.4601 12.4989C47.0282 15.6443 47.843 18.777 47.843 22.3026L47.8397 27.8972L47.8691 30.7973C47.9827 37.9172 49.5192 45.1208 53 51.7132L45.7173 45.8255L40.5644 54.2091L35.1508 49.0998L26.5 63.1745L17.8492 49.1L12.4359 54.2093L7.28287 45.8258L0 51.7134C3.48075 45.1211 5.01733 37.9174 5.13111 30.7975L5.16056 27.8974L5.15719 22.3028C5.15719 18.777 5.97175 15.6443 7.5403 12.4991L8.02719 11.5799C8.98623 12.9326 10.1787 14.4483 11.5325 15.818L11.1098 16.6984C10.2885 18.4082 10.0166 20.3201 10.6564 22.1383C11.0688 23.3095 11.8215 24.3138 12.7919 25.0805C13.7342 25.825 14.8493 26.3269 16.0167 26.5904C16.7772 26.7621 17.552 26.8327 18.3218 26.8087C18.1422 27.8295 18.0637 28.8882 18.0587 29.967L11.1889 33.945L16.4902 36.9243C16.9139 37.1625 17.3172 37.4353 17.6961 37.7401C22.0667 41.6743 24.6944 53.3132 26.5002 58.9982C28.3062 53.3132 30.9337 41.6743 35.3045 37.7401C35.6834 37.4353 36.0867 37.1624 36.5105 36.9243L41.8117 33.945L34.9417 29.967C34.9367 28.8882 34.8582 27.8295 34.6786 26.8087C35.4484 26.8327 36.2232 26.7621 36.9837 26.5904C38.1512 26.3269 39.2665 25.825 40.2085 25.0805C41.1787 24.3138 41.9316 23.3095 42.3438 22.1383C42.9838 20.3201 42.7117 18.4084 41.8906 16.6984L41.4679 15.818L41.4677 15.8178Z" fill="white"/>
</svg>
