<svg width="112" height="112" viewBox="0 0 112 112" fill="none" xmlns="http://www.w3.org/2000/svg">
<path d="M58.7613 45.7003C58.7602 45.5654 58.7372 45.4241 58.7362 45.3153C58.7362 43.2164 58.7163 41.1186 58.7289 39.0197C58.7299 38.7812 58.731 38.5426 58.732 38.3041C58.732 38.1074 58.732 37.9117 58.732 37.6753C57.3338 37.7851 55.924 37.8709 54.5299 37.9954C54.2603 38.0195 53.9729 38.1021 53.8632 38.2727C53.7618 38.4296 53.8162 38.6305 53.8172 38.7979C53.8172 39.0082 53.8183 39.2196 53.8183 39.4299C53.8183 41.5214 53.8256 43.613 53.8246 45.7035C53.8246 46.0017 53.8235 46.2988 53.8235 46.597C55.2218 46.4872 56.6315 46.4014 58.0256 46.2769C58.268 46.2549 58.5732 46.1806 58.6881 46.0163C58.7466 45.9305 58.7613 45.8175 58.7613 45.7003Z" fill="white"/>
<path d="M66.6261 16.2743C71.6495 17.7046 77.0701 16.4313 82.1991 17.4054C83.3601 17.6261 84.7364 18.2445 84.7772 19.4373C84.7949 19.9688 84.5191 20.4689 84.17 20.8676C83.3444 21.8103 82.1353 22.2999 80.9534 22.6975C70.1614 26.3334 58.2596 24.8759 47.2951 27.9374C42.4817 29.2808 37.5 31.9143 35.7047 36.6227C34.6973 39.2635 34.8707 42.3396 36.1687 44.8476C37.4666 47.3566 39.867 49.2557 42.5883 49.9284C43.0199 50.0352 43.4598 50.1084 43.904 50.1555C46.7381 50.4537 48.7696 50.2591 51.5703 49.9881C52.3875 49.9096 54.5821 49.5382 55.1663 48.8078C55.4108 48.4992 54.765 48.3433 54.5925 48.2805C54.231 48.1476 53.8715 48.0106 53.5151 47.8641C52.8275 47.5826 52.1524 47.2698 51.5013 46.912C49.9066 46.0352 48.4154 44.9659 47.0746 43.7281C46.4319 43.1348 45.8038 42.4736 45.5311 41.6386C45.087 40.2826 45.7108 38.7488 46.7391 37.7684C47.7675 36.788 49.1323 36.2607 50.4824 35.8338C56.9669 33.7862 63.8526 33.5675 70.6118 32.8738C77.3711 32.1801 84.309 30.9099 89.9584 27.0972C92.6922 25.2515 95.2264 22.4234 95.0874 19.1045C94.9328 15.4415 91.6566 12.7692 88.4985 10.9591C84.7469 8.80899 80.6159 7.10352 76.3041 7.00413C71.9912 6.90368 67.4683 8.63739 65.0031 12.2126C64.5308 12.8979 64.1253 13.7391 64.351 14.5427C64.6227 15.5105 65.6699 16.0023 66.6261 16.2743ZM68.7934 10.7227C69.4748 10.5846 70.0903 10.7886 70.1677 11.1788C70.245 11.5691 69.7559 11.9971 69.0746 12.1352C68.3932 12.2733 67.7777 12.0692 67.7004 11.679C67.622 11.2877 68.1121 10.8597 68.7934 10.7227Z" fill="white"/>
<path d="M22.5545 27.4592C26.5548 29.9651 31.3829 31.2437 36.4304 32.1655C36.7083 32.2167 37.2141 32.0451 37.4033 31.8641C40.739 28.6677 45.2306 26.7969 50.5456 25.7642C49.2477 25.6303 47.9518 25.4849 46.6518 25.3635C42.5636 24.9826 38.4776 24.5913 34.5629 23.6088C32.3777 23.0606 29.5656 22.4579 28.021 20.6405C27.7148 20.2806 27.5069 19.8077 27.5643 19.3358C27.6187 18.888 27.9071 18.4945 28.2676 18.2277C28.6282 17.9609 29.0566 17.8061 29.4851 17.6784C33.2556 16.5568 37.3228 17.1741 41.1915 17.0025C43.4206 16.9042 45.6109 16.5516 47.4554 15.5262C48.5956 14.8922 48.4158 12.9879 47.6341 12.1257C46.3446 10.7049 44.6077 8.84561 42.4257 8.20004C36.1858 6.35228 30.4726 8.63111 24.5411 10.8869C22.1647 11.7909 20.0851 12.9879 18.8989 14.7561C16.0303 19.0344 17.5874 24.3486 22.5545 27.4592ZM41.853 10.8252C41.9304 10.4349 42.5459 10.2309 43.2272 10.369C43.9086 10.5071 44.3977 10.9351 44.3203 11.3253C44.243 11.7156 43.6275 11.9196 42.9461 11.7815C42.2648 11.6434 41.7757 11.2155 41.853 10.8252Z" fill="white"/>
<path d="M45.9347 68.202C40.9112 66.7717 35.4907 68.0451 30.3606 67.0709C29.1996 66.8502 27.8233 66.2318 27.7825 65.039C27.7648 64.5075 28.0406 64.0074 28.3897 63.6088C29.2153 62.666 30.4244 62.1764 31.6063 61.7788C42.3983 58.1429 54.2991 59.6004 65.2646 56.5389C70.078 55.1955 75.0597 52.562 76.855 47.8536C77.8624 45.2128 77.689 42.1367 76.391 39.6287C75.0931 37.1197 72.6927 35.2206 69.9714 34.5479C69.5398 34.4412 69.1009 34.3679 68.6557 34.3208C65.8216 34.0226 63.7901 34.2172 60.9894 34.4882C60.1722 34.5667 57.9776 34.9381 57.3934 35.6685C57.1489 35.9771 57.7947 36.133 57.9672 36.1958C58.3287 36.3287 58.6882 36.4657 59.0446 36.6122C59.7322 36.8937 60.4073 37.2065 61.0584 37.5643C62.6531 38.4411 64.1443 39.5105 65.4851 40.7482C66.1278 41.3415 66.7559 42.0027 67.0286 42.8377C67.4727 44.1937 66.8489 45.7276 65.8206 46.7079C64.7922 47.6883 63.4274 48.2156 62.0773 48.6425C55.5928 50.6901 48.7072 50.9088 41.9479 51.6025C35.1887 52.2962 28.2507 53.5664 22.6013 57.3791C19.8675 59.2248 17.3333 62.0529 17.4723 65.3718C17.6269 69.0348 20.9031 71.7071 24.0612 73.5172C27.8128 75.6673 31.9438 77.3728 36.2556 77.4722C40.5674 77.5716 45.0914 75.8389 47.5566 72.2637C48.0289 71.5784 48.4344 70.7372 48.2087 69.9336C47.938 68.9658 46.8909 68.474 45.9347 68.202ZM43.7673 73.7547C43.0859 73.8928 42.4704 73.6888 42.3931 73.2985C42.3158 72.9082 42.8048 72.4803 43.4862 72.3422C44.1675 72.2041 44.7831 72.4081 44.8604 72.7984C44.9388 73.1886 44.4487 73.6166 43.7673 73.7547Z" fill="white"/>
<path d="M90.0067 57.0171C86.0064 54.5112 81.1783 53.2326 76.1308 52.3108C75.8529 52.2596 75.3471 52.4312 75.1579 52.6122C71.8222 55.8086 67.3306 57.6794 62.0156 58.7121C63.3136 58.846 64.6094 58.9914 65.9094 59.1128C69.9976 59.4937 74.0836 59.885 77.9983 60.8675C80.1835 61.4157 82.9956 62.0184 84.5402 63.8358C84.8464 64.1957 85.0543 64.6687 84.9969 65.1405C84.9425 65.5883 84.6541 65.9818 84.2936 66.2486C83.933 66.5154 83.5046 66.6702 83.0761 66.7979C79.3056 67.9195 75.2384 67.3022 71.3697 67.4738C69.1406 67.5721 66.9503 67.9247 65.1058 68.9501C63.9657 69.5842 64.1454 71.4884 64.9271 72.3506C66.2166 73.7714 67.9535 75.6307 70.1355 76.2763C76.3754 78.124 82.0886 75.8452 88.0201 73.5894C90.3965 72.6854 92.4762 71.4884 93.6623 69.7202C96.5309 65.4419 94.9738 60.1277 90.0067 57.0171ZM70.7082 73.6511C70.6308 74.0414 70.0153 74.2454 69.334 74.1073C68.6526 73.9692 68.1635 73.5412 68.2409 73.151C68.3182 72.7607 68.9337 72.5567 69.6151 72.6948C70.2964 72.8329 70.7855 73.2608 70.7082 73.6511Z" fill="white"/>
<path d="M5 86.9903H8.4371V100.913H11.3956V84.5556H6.00009C5.44832 84.5556 5.00105 84.9961 5.00105 85.5391V86.9903H5Z" fill="white"/>
<path d="M19.1142 89.1185C17.4045 89.1185 16.0313 89.6699 15.0333 90.756C14.0479 91.8284 13.5483 93.3005 13.5483 95.1326C13.5483 96.9699 14.0458 98.4462 15.0271 99.5176C16.0219 100.605 17.3972 101.156 19.1142 101.156C20.8312 101.156 22.2064 100.605 23.2013 99.5176C24.1826 98.4452 24.68 96.9699 24.68 95.1326C24.68 93.3016 24.1826 91.8295 23.2013 90.757C22.2054 89.6699 20.8312 89.1185 19.1142 89.1185ZM20.898 97.8488C20.4675 98.4368 19.8833 98.7225 19.1131 98.7225C18.3429 98.7225 17.7588 98.4368 17.3293 97.8488C16.8674 97.2189 16.6333 96.3045 16.6333 95.1326C16.6333 93.967 16.8674 93.0568 17.3293 92.4269C17.7598 91.8389 18.3429 91.5532 19.1131 91.5532C19.8833 91.5532 20.4664 91.8389 20.897 92.4269C21.3589 93.0578 21.5919 93.9681 21.5919 95.1326C21.593 96.3045 21.3599 97.2179 20.898 97.8488Z" fill="white"/>
<path d="M32.9432 89.1185C31.7101 89.1185 30.6546 89.5423 29.7914 90.3803V89.3529H27.833C27.2813 89.3529 26.834 89.7934 26.834 90.3364V100.913H29.7914V93.6783C30.7142 92.52 31.5742 91.9341 32.3497 91.9341C33.0132 91.9341 33.194 92.1737 33.2526 92.2522C33.3853 92.43 33.5441 92.8276 33.5441 93.7128V100.913H36.5016V93.1865C36.5026 89.8248 34.5672 89.1185 32.9432 89.1185Z" fill="white"/>
<path d="M45.3297 89.9984C44.4864 89.4146 43.619 89.1196 42.7412 89.1196C41.2457 89.1196 40.0136 89.7191 39.0804 90.9014C38.1765 92.045 37.7188 93.536 37.7188 95.3335C37.7188 96.994 38.119 98.3447 38.9069 99.3471C39.7263 100.388 40.8434 100.915 42.227 100.915C43.4016 100.915 44.3954 100.54 45.197 99.796L45.1813 100.136C45.1813 101.817 44.3735 102.568 42.5635 102.568C41.6345 102.568 40.6072 102.335 39.5089 101.877L38.8944 101.621L38.5495 104.309L38.9623 104.428C40.2812 104.809 41.4861 105.002 42.5447 105.002C44.408 105.002 45.8125 104.521 46.7185 103.571C47.2818 102.981 47.6716 102.291 47.8764 101.522C48.0739 100.784 48.1701 99.7311 48.1701 98.3071V90.3385C48.1701 89.7955 47.7228 89.355 47.171 89.355H45.3307V89.9984H45.3297ZM42.6617 98.2453C42.0859 98.2453 41.6679 98.0183 41.345 97.5318C40.9866 96.9908 40.8047 96.2072 40.8047 95.2006C40.8047 93.9932 41.0169 93.0557 41.4359 92.4143C41.8194 91.8263 42.3158 91.5532 42.9972 91.5532C43.735 91.5532 44.479 91.9414 45.2095 92.7083V96.5242C44.4414 97.6824 43.6064 98.2453 42.6617 98.2453Z" fill="white"/>
<path d="M56.774 98.7225C54.7539 98.7225 53.6703 97.8948 53.3996 96.1266H60.6594V95.0165C60.6594 93.0348 60.2801 91.5972 59.4984 90.622C58.6989 89.6249 57.4637 89.1196 55.8251 89.1196C54.2116 89.1196 52.8624 89.7097 51.8143 90.8731C50.7818 92.0188 50.2593 93.492 50.2593 95.2508C50.2593 97.1227 50.8121 98.5917 51.9031 99.6191C52.9868 100.64 54.5366 101.158 56.5075 101.158C57.6821 101.158 58.9863 100.927 60.3825 100.472L60.7284 100.359V97.7473L60.0355 98.0204C58.8505 98.4849 57.7521 98.7225 56.774 98.7225ZM53.4801 93.6919C53.6013 93.0725 53.8249 92.5755 54.1468 92.2093C54.5335 91.7688 55.0277 91.5543 55.6579 91.5543C56.5169 91.5543 57.4982 91.8033 57.5693 93.6919H53.4801Z" fill="white"/>
<path d="M68.3248 97.0327L65.0915 89.3529H63.4926C62.781 89.3529 62.2971 90.0654 62.5699 90.7131L66.8639 100.914H69.4932L73.898 90.7225C74.178 90.0738 73.6942 89.3539 72.9784 89.3539H71.6627L68.3248 97.0327Z" fill="white"/>
<path d="M76.104 91.7876H79.3039V100.913H82.2613V89.3529H77.1031C76.5513 89.3529 76.104 89.7934 76.104 90.3364V91.7876Z" fill="white"/>
<path d="M79.0571 87.954H82.5089V84.5556H80.0562C79.5044 84.5556 79.0571 84.9961 79.0571 85.5391V87.954Z" fill="white"/>
<path d="M91.5379 98.7225C90.7844 98.7225 90.2191 98.6032 89.8617 98.3709C89.7039 98.2652 89.6067 98.1543 89.567 98.0329C89.5335 97.9335 89.4781 97.6605 89.4781 96.9427V92.0303H94.2424V89.5956H89.4781V87.3189H86.5207V89.5956H84.8413C84.2896 89.5956 83.8423 90.0361 83.8423 90.5791V92.0303H86.5207V96.6309C86.5207 98.3479 86.8509 99.5061 87.5302 100.169C88.2084 100.833 89.3851 101.156 91.1282 101.156C92.0635 101.156 93.0438 101.068 94.0428 100.896L94.4608 100.823V98.3207L93.8411 98.4619C93.0835 98.6346 92.3091 98.7225 91.5379 98.7225Z" fill="white"/>
<path d="M105.244 89.3529L102.036 96.475L98.8574 89.3529H97.2647C96.5437 89.3529 96.0598 90.0821 96.3503 90.7319L100.46 99.9424L100.074 100.749C99.6411 101.653 99.3297 101.961 99.1824 102.062C99.012 102.18 98.6452 102.322 97.8625 102.322H96.5667V104.756H97.9022C99.0915 104.756 99.9985 104.551 100.674 104.13C101.342 103.711 101.915 102.985 102.376 101.971L107.472 90.7371C107.766 90.0863 107.283 89.3529 106.559 89.3529H105.244Z" fill="white"/>
</svg>
