<svg width="58" height="50" viewBox="0 0 58 50" fill="none" xmlns="http://www.w3.org/2000/svg">
<path d="M48.2829 7.43929C50.0622 6.79369 50.9454 6.56134 51.4347 6.47824C51.4383 6.63469 51.4347 6.76153 51.4266 6.84475C50.7288 14.1765 47.6718 32.2144 46.1016 40.6078C45.7341 42.5734 45.4521 43.5091 43.5537 42.394C42.3042 41.6596 41.1735 40.7356 39.9621 39.9415C35.9883 37.3363 30.3 33.4567 30.7671 33.6901C26.8549 31.1119 28.4925 29.5333 30.6765 27.4279C31.0302 27.0871 31.398 26.7325 31.7589 26.3575C31.92 26.1901 32.7081 25.4572 33.8193 24.4243C37.3836 21.1105 44.2713 14.7071 44.4453 13.9661C44.4738 13.8445 44.5002 13.3913 44.2308 13.152C43.9617 12.9128 43.5645 12.9946 43.2777 13.0597C42.8712 13.1519 36.3978 17.4307 23.8573 25.8958C22.0198 27.1576 20.3555 27.7726 18.8643 27.7402L18.8777 27.7468C16.9134 27.0541 14.9547 26.4577 12.9856 25.858C11.6921 25.4638 10.3941 25.0684 9.08711 24.6436C8.76746 24.5398 8.45558 24.4411 8.16248 24.349C21.7434 18.4327 30.789 14.5373 35.3217 12.652C41.9052 9.91372 45.8103 8.33653 48.2829 7.43929ZM55.5507 1.65418C54.7905 1.03732 53.955 0.754207 53.3745 0.615547C52.7751 0.472357 52.2054 0.426277 51.7734 0.433897C50.3442 0.459067 48.8091 0.865537 46.2363 1.79911C43.6119 2.75146 39.579 4.38289 33.0174 7.11208C28.3914 9.03622 19.1816 13.0034 5.41094 19.003C4.20137 19.4866 3.09257 20.0353 2.21651 20.6857C1.40756 21.2866 0.275182 22.3615 0.0680317 24.0142C-0.0884513 25.2622 0.275452 26.4142 1.01345 27.3214C1.65593 28.111 2.47904 28.5907 3.10586 28.8943C4.03634 29.3449 5.28827 29.7373 6.38855 30.0823C8.10791 30.6211 9.82331 31.1716 11.5464 31.699C16.8807 33.3319 21.272 34.6759 26.1036 37.8598C29.6475 40.1953 33.123 42.6325 36.6729 44.9593C37.9677 45.808 39.1779 46.7821 40.5147 47.5672C41.9748 48.4252 43.8312 49.2076 46.0908 48.9994C49.5057 48.6853 51.2823 45.5437 51.9993 41.7109C53.5656 33.3388 56.6727 15.0505 57.3996 7.41322C57.4944 6.41632 57.3834 5.299 57.291 4.75954C57.1959 4.204 56.9052 2.75344 55.5507 1.65418Z" fill="white"/>
</svg>
